<svg width="1183" height="102" viewBox="0 0 1183 102" fill="none" xmlns="http://www.w3.org/2000/svg">
<path opacity="0.04" d="M74.5 4.25C74.6667 5 75.0833 5.58333 75.75 6L75.9375 8.0625C75.9792 8.39583 76.0208 8.75 76.0625 9.125C76.1042 9.45833 76.1667 9.79167 76.25 10.125V11.1875C76.25 11.5625 76.375 11.875 76.625 12.125C76.375 15.125 75.9792 17.5208 75.4375 19.3125C75.1458 20.2292 74.875 21.2083 74.625 22.25C74.4167 23.2917 74.2083 24.375 74 25.5C73.9583 25.7917 73.8542 26.1875 73.6875 26.6875C73.5625 27.0625 73.5 27.4583 73.5 27.875C73.4167 28.2917 73.3958 28.5833 73.4375 28.75C73.4792 28.9167 73.4583 29.2083 73.375 29.625C73.1667 30.2083 72.9167 30.75 72.625 31.25C72.4583 31.5417 72.2917 31.8542 72.125 32.1875C71.9583 32.4792 71.7917 32.7917 71.625 33.125C70.2917 35.5417 68.8125 37.8333 67.1875 40C65.5625 42.1667 63.5417 43.8333 61.125 45C60.125 45.4583 59.3542 45.8542 58.8125 46.1875C58.2292 46.5208 57.4583 46.7917 56.5 47C55.9167 47.3333 55.2292 47.6875 54.4375 48.0625C53.6458 48.4375 52.875 48.7083 52.125 48.875C51.8333 49.0417 51.5 49.125 51.125 49.125C50.875 49.125 50.5417 49.1667 50.125 49.25L49.0625 49.6875C48.8958 49.7292 48.75 49.7917 48.625 49.875C48.5 49.9167 48.375 49.9583 48.25 50C47.625 50.1667 47.125 50.25 46.75 50.25C46.1667 50.1667 45.75 49.8125 45.5 49.1875C45.25 48.5625 45.125 47.9167 45.125 47.25C44.75 46.875 44.375 46.5833 44 46.375C43.625 46.1667 43.3333 45.7083 43.125 45C42.875 44.0833 42.7083 43.5833 42.625 43.5C42.5 43.375 42.4167 43.25 42.375 43.125C41.9583 41.9583 41.8125 40.6458 41.9375 39.1875C42.0625 37.7292 42.375 36.5417 42.875 35.625C43.0833 35.1667 43.3333 34.8542 43.625 34.6875C44 34.4792 44.2083 34.1667 44.25 33.75C44.875 33.375 45.4583 32.9375 46 32.4375C46.5417 31.9375 47.125 31.5 47.75 31.125C48.5 29.7917 49.4583 28.7083 50.625 27.875C51.6667 27.1667 52.7083 26.375 53.75 25.5C54.125 25.2083 54.3958 24.9167 54.5625 24.625C54.8125 24.25 55.125 23.9167 55.5 23.625C55.7917 23.3333 56.0833 23.1042 56.375 22.9375C56.7917 22.6875 57.0833 22.5 57.25 22.375L58.25 21.375C58.5417 21.2083 58.875 21.125 59.25 21.125C59.625 21.125 59.9583 21.0417 60.25 20.875C61.4167 20.7083 62 20.7708 62 21.0625V22C61.25 22.4583 60.1667 22.875 58.75 23.25C58.5417 23.9583 58.1875 24.4583 57.6875 24.75C57.2708 25 56.7917 25.4583 56.25 26.125C56.0833 26.3333 55.9167 26.5417 55.75 26.75C55.625 26.9167 55.5208 27.1042 55.4375 27.3125C55.2708 27.6458 54.875 27.9167 54.25 28.125C53.7917 29.2083 53.2708 30.0625 52.6875 30.6875C52.0208 31.3958 51.4167 32.125 50.875 32.875C50.875 33.7917 50.6875 34.5625 50.3125 35.1875C49.9375 35.8125 49.5417 36.4583 49.125 37.125C48.9583 37.4583 48.7917 37.7917 48.625 38.125C48.4583 38.4583 48.375 38.7083 48.375 38.875C48.4167 38.9583 48.4583 39.0625 48.5 39.1875C48.5833 39.2708 48.6458 39.3958 48.6875 39.5625C48.8125 39.8958 48.9583 40.1667 49.125 40.375C49.25 40.5417 49.4375 40.75 49.6875 41C49.9375 41.25 50.0833 41.4583 50.125 41.625C52.125 40.375 54.1042 39.125 56.0625 37.875C58.0208 36.625 59.7083 35.125 61.125 33.375C61.5417 32.625 61.9375 31.8958 62.3125 31.1875C62.6875 30.4792 63.0833 29.7083 63.5 28.875C63.6667 28.0417 63.9167 27.25 64.25 26.5C64.5833 25.75 64.9583 25 65.375 24.25C65.7917 23.4167 66.1667 22.5833 66.5 21.75C66.8333 20.9167 67.0417 20.0417 67.125 19.125C67.1667 18.7917 67.1875 18.4583 67.1875 18.125C67.2292 17.75 67.2292 17.3542 67.1875 16.9375C67.1458 16.1875 67.25 15.5833 67.5 15.125C67.3333 14.6667 67.3333 14.1042 67.5 13.4375C67.6667 12.8542 67.7083 12.1667 67.625 11.375C67.0417 10.125 66.4583 9.39583 65.875 9.1875C65.2917 8.97917 64.6667 8.79167 64 8.625C63.3333 9.04167 62.625 9.5 61.875 10C61.125 10.5 60.4167 11.0417 59.75 11.625C59.5 11.875 59.25 12.125 59 12.375C58.75 12.625 58.4792 12.875 58.1875 13.125C57.6042 13.625 57.1667 14.2083 56.875 14.875C55.7917 16.0417 54.9167 17.0625 54.25 17.9375C53.5833 18.8125 52.9167 19.7083 52.25 20.625C50.9583 21.4583 49.6667 22.4583 48.375 23.625C47.0833 24.7917 45.7917 25.7917 44.5 26.625C43.4167 27.4583 42.3542 28.3125 41.3125 29.1875C40.2708 30.0625 39.2917 30.9583 38.375 31.875C37.9583 32.3333 37.5208 32.7708 37.0625 33.1875C36.6458 33.6042 36.2083 34.0208 35.75 34.4375C34.7917 35.2708 33.9583 36.125 33.25 37C31.9583 38.7917 30.5 40.6667 28.875 42.625C28.4167 43.0833 28.0417 43.5417 27.75 44C27.4583 44.5 27.0833 45 26.625 45.5C26.2083 45.9167 25.8125 46.375 25.4375 46.875C25.2708 47.125 25.0833 47.375 24.875 47.625C24.7083 47.8333 24.5417 48.0417 24.375 48.25C24.2083 48.5417 24 48.9792 23.75 49.5625C23.5 50.1458 23.2917 50.5833 23.125 50.875C22.2917 51.875 21.4792 52.8958 20.6875 53.9375C19.8958 54.9792 19.2083 56.1667 18.625 57.5C17.6667 58.75 16.8958 60.0625 16.3125 61.4375C16.0208 62.1042 15.7292 62.75 15.4375 63.375C15.1458 64 14.8333 64.625 14.5 65.25C14.3333 66.375 14.0208 67.4167 13.5625 68.375C13.1042 69.3333 12.7917 70.375 12.625 71.5C12.5833 71.7917 12.5208 72.0833 12.4375 72.375C12.3542 72.625 12.2708 72.8958 12.1875 73.1875C12.1042 73.4792 12.0208 73.7708 11.9375 74.0625C11.8542 74.3542 11.7917 74.6667 11.75 75C11.5833 75.5 11.5 76.1042 11.5 76.8125C11.5 77.4792 11.4167 78.0417 11.25 78.5C10.75 79.5417 10.5 80.3125 10.5 80.8125C10.5 81.2708 10.2917 81.625 9.875 81.875C10.125 82.5417 10.3542 83.125 10.5625 83.625C10.7708 84.125 11.0833 84.625 11.5 85.125C11.7083 85.4583 11.9583 85.75 12.25 86C12.5417 86.25 12.7917 86.5417 13 86.875C13.3333 87.7083 13.6042 88.2083 13.8125 88.375C14.0208 88.5417 14.2917 88.75 14.625 89C14.875 89.1667 15.1875 89.375 15.5625 89.625C15.9375 89.875 16.2917 90.0417 16.625 90.125C17.0833 90.2917 17.5208 90.3542 17.9375 90.3125C18.2292 90.2708 18.6667 90.2917 19.25 90.375C19.7917 90.375 20.1667 90.3958 20.375 90.4375C20.5833 90.4792 20.9583 90.4583 21.5 90.375C22.1667 90.2083 22.9583 90.0208 23.875 89.8125C24.7917 89.6042 25.625 89.4167 26.375 89.25C27.5417 88.9167 28.6875 88.5833 29.8125 88.25C30.9375 87.9167 32 87.5417 33 87.125C34.0833 86.6667 34.9583 86.0833 35.625 85.375C36.2917 84.6667 37.0417 84.0833 37.875 83.625C39.2083 82.625 40.1458 81.8125 40.6875 81.1875C41.2708 80.5625 41.875 80.0417 42.5 79.625C43.0833 78.875 43.4167 78.5 43.5 78.5C43.5833 78.5 43.6667 78.4583 43.75 78.375C44.0417 78.0417 44.3125 77.7292 44.5625 77.4375C44.8542 77.1458 45.1458 76.8542 45.4375 76.5625C45.7292 76.2708 46 75.9792 46.25 75.6875C46.5417 75.3958 46.8333 75.0833 47.125 74.75C48.125 74.2917 48.875 73.75 49.375 73.125C50.0833 72.875 50.6458 72.5417 51.0625 72.125C51.2708 71.9167 51.5 71.7083 51.75 71.5C52 71.2917 52.25 71.0833 52.5 70.875C53.125 70.4167 53.5833 70.0417 53.875 69.75C54.2083 69.4167 54.5208 69.0833 54.8125 68.75C55.1042 68.4167 55.4167 68.0417 55.75 67.625C55.9583 67.4167 56.2083 67.2292 56.5 67.0625C56.875 66.8125 57.2083 66.5 57.5 66.125C57.625 65.9583 57.7917 65.625 58 65.125C58.1667 64.7083 58.4583 64.5 58.875 64.5C59.375 64.4167 59.9167 64.6458 60.5 65.1875C61.0833 65.7292 61.375 66.2917 61.375 66.875C60.5833 68.125 60.1667 68.8333 60.125 69C59.5 69.9167 58.875 70.7083 58.25 71.375C57.9167 71.75 57.5833 72.1458 57.25 72.5625C56.9167 72.9792 56.5833 73.4167 56.25 73.875C55.5833 74.625 54.9167 75.3958 54.25 76.1875C53.5833 76.9792 52.9583 77.8333 52.375 78.75C51.875 79.5833 51.2292 80.3958 50.4375 81.1875C50.1042 81.5208 49.75 81.8958 49.375 82.3125C49 82.6875 48.625 83.0833 48.25 83.5C47.2917 84.5417 46.2292 85.625 45.0625 86.75C44.0625 87.6667 43.0833 88.875 42.125 90.375C41.5833 90.9167 41.1667 91.3125 40.875 91.5625C40.5833 91.8125 40.1667 92.2083 39.625 92.75C39.1667 93 38.7708 93.2708 38.4375 93.5625C38.1042 93.8542 37.7083 94.125 37.25 94.375C36.4167 94.6667 35.5625 95.0208 34.6875 95.4375C33.8542 95.8125 33.0208 96.2292 32.1875 96.6875C30.3958 97.6875 28.5 98.4583 26.5 99C26.0417 99.125 25.5625 99.25 25.0625 99.375C24.6042 99.5417 24.1458 99.7083 23.6875 99.875C22.7708 100.167 21.7083 100.292 20.5 100.25C20.25 100.167 20.0417 100.125 19.875 100.125C19.7083 100.125 19.4583 100.083 19.125 100C18.7083 99.9583 18.1875 99.7917 17.5625 99.5C16.9375 99.2083 16.3333 99.0417 15.75 99C15.3333 99 14.9583 99.0625 14.625 99.1875C14.3333 99.3125 13.9583 99.375 13.5 99.375C11.6667 98.2083 10.1875 97.2292 9.0625 96.4375C7.9375 95.6458 6.91667 94.7083 6 93.625C5.20833 92.4167 4.75 91.7292 4.625 91.5625C4.5 91.3958 4.35417 91.2292 4.1875 91.0625C4.0625 90.8958 3.91667 90.7083 3.75 90.5C3.08333 89.5417 2.41667 88.4167 1.75 87.125C1.75 86.8333 1.64583 86.5417 1.4375 86.25C1.3125 86.0833 1.125 85.7917 0.875 85.375C0.458333 84 0.25 82.5208 0.25 80.9375C0.25 80.1458 0.25 79.375 0.25 78.625C0.291667 77.875 0.333333 77.125 0.375 76.375C0.416667 75.9583 0.416667 75.5625 0.375 75.1875C0.291667 74.6875 0.25 74.2917 0.25 74C0.25 73.3333 0.375 72.625 0.625 71.875C0.75 71.5 0.854167 71.1458 0.9375 70.8125C1.0625 70.4375 1.16667 70.0833 1.25 69.75C1.75 67.9167 2.3125 66.1875 2.9375 64.5625C3.5625 62.9375 4.29167 61.4167 5.125 60C5.875 58.9583 6.4375 58 6.8125 57.125C7.02083 56.6667 7.20833 56.2083 7.375 55.75C7.58333 55.25 7.79167 54.75 8 54.25C8.41667 53.3333 8.83333 52.4375 9.25 51.5625C9.66667 50.6875 10.125 49.7917 10.625 48.875C11.0417 48.0417 11.4792 47.2083 11.9375 46.375C12.3958 45.5417 13 44.7917 13.75 44.125C14 43.2083 14.375 42.4375 14.875 41.8125C15.125 41.4792 15.375 41.1667 15.625 40.875C15.875 40.5417 16.125 40.2083 16.375 39.875C16.7917 39.2917 17.2083 38.7292 17.625 38.1875C18.0833 37.6458 18.5208 37.125 18.9375 36.625C19.7708 35.7083 20.5417 34.5833 21.25 33.25C21.9167 32.75 22.5208 32.2083 23.0625 31.625C23.6042 31.0417 24.125 30.4583 24.625 29.875C24.9167 29.5417 25.1875 29.2292 25.4375 28.9375C25.7292 28.6458 26.0208 28.3542 26.3125 28.0625C26.6042 27.7708 26.875 27.4792 27.125 27.1875C27.4167 26.8958 27.7083 26.5833 28 26.25C28.3333 26 28.6458 25.7292 28.9375 25.4375C29.2292 25.1458 29.5 24.875 29.75 24.625C30.3333 23.9583 30.9167 23.375 31.5 22.875C32.0833 22.375 32.7083 21.875 33.375 21.375C33.9583 21.125 34.6667 20.6667 35.5 20C35.875 19.625 36.25 19.25 36.625 18.875C37 18.5 37.3542 18.1042 37.6875 17.6875C38.0208 17.2708 38.375 16.8958 38.75 16.5625C39.125 16.1875 39.5 15.8333 39.875 15.5C41.0417 14.3333 42.25 13.1875 43.5 12.0625C44.75 10.9375 46.0833 9.91667 47.5 9C48.3333 8.08333 49.3333 7.3125 50.5 6.6875C51.6667 6.0625 52.8333 5.45833 54 4.875C54.6667 4.625 55.2292 4.39583 55.6875 4.1875C56.1458 3.97917 56.6667 3.70833 57.25 3.375C58.2083 2.79167 58.875 2.47917 59.25 2.4375C59.6667 2.39583 60 2.20833 60.25 1.875C61.2917 1.875 62.1667 1.72917 62.875 1.4375C63.5833 1.14583 64.4167 1.125 65.375 1.375C65.6667 1.41667 65.9583 1.52083 66.25 1.6875C66.5833 1.85417 66.8333 1.95833 67 2C68.5833 2.16667 69.7083 2.41667 70.375 2.75C71.0417 3.08333 71.6875 3.39583 72.3125 3.6875C72.9375 3.97917 73.6667 4.16667 74.5 4.25ZM203.925 59.875C204.342 59.9167 204.613 60.0833 204.738 60.375C204.863 60.625 205.092 60.75 205.425 60.75C205.592 61.5417 205.425 62.1042 204.925 62.4375C204.425 62.7292 204.258 63.2083 204.425 63.875C203.675 64.375 202.758 64.6875 201.675 64.8125C200.55 64.9375 199.717 65.375 199.175 66.125C197.717 66.8333 196.196 67.2708 194.613 67.4375C193.821 67.5208 192.988 67.6458 192.113 67.8125C191.279 67.9375 190.425 68.0833 189.55 68.25C188.633 68.875 188.071 69.2083 187.863 69.25C187.571 69.2917 187.258 69.4167 186.925 69.625C186.05 69.2917 185.175 69.125 184.3 69.125C183.425 69.125 182.508 69 181.55 68.75C181.092 68.9167 180.613 69 180.113 69C179.613 69 179.133 69.0833 178.675 69.25C178.342 70 178.175 70.75 178.175 71.5C178.175 72.2917 178.05 73.0417 177.8 73.75L177.05 75.25L176.863 76.4375C176.779 76.9375 176.675 77.3333 176.55 77.625C176.383 77.875 176.196 78.1667 175.988 78.5C175.779 78.8333 175.675 79.2083 175.675 79.625C175.092 80.375 174.675 81.1458 174.425 81.9375C174.175 82.8542 173.717 83.5833 173.05 84.125C172.8 85 172.404 85.6667 171.863 86.125C171.321 86.625 170.8 87.2083 170.3 87.875C169.383 89.125 168.571 90.2083 167.863 91.125C167.154 92.0417 166.217 92.8333 165.05 93.5C164.633 94.1667 164.133 94.625 163.55 94.875C163.133 95.2917 162.8 95.7083 162.55 96.125L160.05 97.625C159.05 98.25 158.092 98.6667 157.175 98.875C155.758 99.2083 154.383 99.1667 153.05 98.75C151.717 98.3333 150.467 97.75 149.3 97C148.508 97.0833 147.904 96.9375 147.488 96.5625C147.071 96.2292 146.508 95.9583 145.8 95.75C144.883 94.9167 143.883 94.1667 142.8 93.5C141.675 92.7917 140.883 91.875 140.425 90.75L139.863 88C139.696 87.1667 139.508 86.3333 139.3 85.5C139.133 84.7917 139.113 84 139.238 83.125C139.363 82.375 139.383 81.5417 139.3 80.625C139.3 80.1667 139.3 79.75 139.3 79.375C139.3 78.9583 139.279 78.6042 139.238 78.3125C139.196 77.6875 139.383 76.9167 139.8 76C140.05 75.4583 140.258 74.9583 140.425 74.5C140.592 74.0417 140.717 73.6458 140.8 73.3125C140.883 72.9792 140.967 72.6667 141.05 72.375C141.133 72.0417 141.217 71.75 141.3 71.5C141.425 71.2917 141.55 71.0833 141.675 70.875C141.8 70.625 141.925 70.375 142.05 70.125C142.175 69.875 142.3 69.6458 142.425 69.4375C142.592 69.1875 142.758 68.9583 142.925 68.75C143.425 68 144.008 67.25 144.675 66.5C145.342 65.75 146.008 65.0417 146.675 64.375C147.133 63.75 147.592 63.2083 148.05 62.75C148.8 62 149.508 61.375 150.175 60.875C150.842 60.375 151.592 59.7083 152.425 58.875C152.592 58.625 152.8 58.4167 153.05 58.25L153.8 57.75C154.633 57.25 155.404 56.8333 156.113 56.5C156.821 56.1667 157.633 55.7917 158.55 55.375C159.342 55 159.988 54.7708 160.488 54.6875C160.821 54.6042 161.154 54.5417 161.488 54.5C161.863 54.4167 162.258 54.3333 162.675 54.25H164.175C164.633 54.25 165.05 54.1667 165.425 54C165.175 53.3333 165.467 52.875 166.3 52.625C167.133 52.375 167.758 52.2917 168.175 52.375C169.008 52.375 169.675 52.5625 170.175 52.9375C170.675 53.3125 171.133 53.75 171.55 54.25C172.383 54.8333 173.3 55.7083 174.3 56.875C174.508 57.0833 174.717 57.2083 174.925 57.25C175.133 57.2917 175.342 57.4167 175.55 57.625C175.883 58.125 176.113 58.5833 176.238 59C176.363 59.5 176.633 59.9583 177.05 60.375C177.3 60.5417 177.55 60.75 177.8 61C178.05 61.25 178.217 61.5833 178.3 62C179.175 62.3333 179.967 62.5833 180.675 62.75C181.05 62.9167 181.488 62.9583 181.988 62.875C182.446 62.7917 182.967 62.7917 183.55 62.875C183.925 62.9167 184.3 63.0208 184.675 63.1875C185.008 63.3125 185.383 63.375 185.8 63.375C186.425 63.3333 187.113 63.1667 187.863 62.875C188.571 62.625 189.383 62.5833 190.3 62.75C191.55 63.0417 192.863 62.9167 194.238 62.375C195.613 61.7917 197.008 61.4167 198.425 61.25C198.842 61.25 199.133 61.2292 199.3 61.1875C199.467 61.1458 199.758 61.125 200.175 61.125C200.592 60.7917 201.133 60.5417 201.8 60.375C202.467 60.2083 203.175 60.0417 203.925 59.875ZM168.175 63.625C167.342 62.875 166.863 62.3958 166.738 62.1875C166.571 61.9375 166.425 61.7917 166.3 61.75C165.925 61.375 165.508 61.1667 165.05 61.125C164.8 61.0833 164.55 61.0417 164.3 61C164.092 60.9583 163.883 60.9167 163.675 60.875C162.342 60.625 161.238 60.7708 160.363 61.3125C159.946 61.6042 159.508 61.875 159.05 62.125C158.633 62.375 158.217 62.625 157.8 62.875C156.467 63.7083 155.3 64.75 154.3 66C154.05 66.4167 153.779 66.875 153.488 67.375C153.196 67.875 152.967 68.4167 152.8 69C152.467 69.6667 152.175 70.2708 151.925 70.8125C151.675 71.3542 151.467 72 151.3 72.75C150.883 73.5417 150.633 74.2292 150.55 74.8125C150.508 75.1042 150.467 75.375 150.425 75.625C150.383 75.8333 150.342 76.0417 150.3 76.25C150.258 76.6667 150.196 77.1042 150.113 77.5625C150.029 77.9792 149.946 78.4167 149.863 78.875C149.654 79.9167 149.55 80.7083 149.55 81.25C149.633 81.5 149.758 81.8333 149.925 82.25C150.092 82.6667 150.258 82.9583 150.425 83.125C150.592 83.5417 150.779 84 150.988 84.5C151.196 85 151.383 85.375 151.55 85.625C152.008 86.2083 152.55 86.5833 153.175 86.75C153.508 86.8333 153.863 86.9375 154.238 87.0625C154.613 87.1458 155.008 87.25 155.425 87.375C156.342 87.875 156.967 88.0833 157.3 88C157.717 87.9167 157.967 87.875 158.05 87.875C159.175 87.6667 160.133 87.2083 160.925 86.5C161.633 85.8333 162.467 85.25 163.425 84.75C163.758 84.25 164.092 83.7292 164.425 83.1875C164.8 82.6458 165.196 82.1042 165.613 81.5625C166.029 80.9792 166.404 80.4167 166.738 79.875C167.113 79.2917 167.467 78.7083 167.8 78.125C168.008 77.875 168.217 77.5 168.425 77C168.508 76.7917 168.592 76.6042 168.675 76.4375C168.758 76.2292 168.842 76.0417 168.925 75.875C169.508 75.1667 169.779 74.7917 169.738 74.75C169.696 74.7083 169.717 74.5833 169.8 74.375C170.342 73.125 170.592 72.1667 170.55 71.5C170.508 70.8333 170.508 70.1667 170.55 69.5C170.342 69.0417 170.154 68.5625 169.988 68.0625C169.821 67.5625 169.654 67.0417 169.488 66.5C169.154 65.375 168.717 64.4167 168.175 63.625ZM276.225 80.625C276.892 80.2083 277.433 79.6667 277.85 79C278.058 78.6667 278.288 78.3333 278.538 78C278.788 77.6667 279.058 77.3333 279.35 77C280.433 75.75 281.6 74.7083 282.85 73.875C283.433 73 284.163 72.3542 285.038 71.9375C285.913 71.4792 286.6 70.7917 287.1 69.875C287.225 69.7083 287.371 69.4583 287.538 69.125C287.704 68.7917 287.85 68.5417 287.975 68.375C289.558 66.1667 291.267 64.3333 293.1 62.875C293.35 62.6667 293.6 62.4583 293.85 62.25C294.1 62.0417 294.329 61.8333 294.538 61.625C294.871 61.2917 295.433 60.875 296.225 60.375C296.6 60.1667 296.975 59.9375 297.35 59.6875C297.725 59.3958 298.079 59.0833 298.413 58.75C299.079 58.0833 299.85 57.5833 300.725 57.25C301.267 57 301.808 56.8125 302.35 56.6875C302.6 56.6042 302.85 56.5417 303.1 56.5C303.392 56.4167 303.683 56.3333 303.975 56.25C304.558 56.0833 305.079 55.9375 305.538 55.8125C305.996 55.6875 306.517 55.7083 307.1 55.875C308.433 56.4167 309.433 57.5417 310.1 59.25C310.35 59.875 310.204 61.1875 309.663 63.1875C309.163 65.1875 308.558 67.2708 307.85 69.4375C307.142 71.5625 306.642 73.2083 306.35 74.375C306.183 75 306.142 75.3542 306.225 75.4375C306.308 75.5208 306.35 75.625 306.35 75.75C306.183 76.1667 306.058 76.5417 305.975 76.875C305.892 77.2083 305.808 77.5833 305.725 78C305.558 78.6667 305.433 79.5625 305.35 80.6875C305.267 81.8125 305.308 82.7083 305.475 83.375C306.308 83.3333 306.788 83.25 306.913 83.125C306.996 83.0417 307.1 83 307.225 83C307.558 82.9167 307.829 82.8958 308.038 82.9375C308.246 82.9792 308.517 82.9583 308.85 82.875C310.558 82.4167 312.1 81.5 313.475 80.125C314.225 79.7917 314.933 79.4583 315.6 79.125C316.308 78.7917 316.975 78.4583 317.6 78.125C318.767 77.2917 319.704 76.6875 320.413 76.3125C321.121 75.9375 322.183 75.4167 323.6 74.75C324.142 74.125 324.871 73.6042 325.788 73.1875C326.621 72.8125 327.433 72.2917 328.225 71.625C328.475 71.375 328.683 71.1458 328.85 70.9375C329.1 70.6042 329.35 70.5417 329.6 70.75C330.017 71.1667 330.288 71.6042 330.413 72.0625C330.538 72.5208 330.558 72.8333 330.475 73C329.85 73.625 329.496 74.125 329.413 74.5C329.329 74.875 329.225 75.125 329.1 75.25C328.683 75.6667 328.058 76.0417 327.225 76.375C326.517 76.6667 326.079 76.9375 325.913 77.1875C325.746 77.4375 325.6 77.625 325.475 77.75C325.225 78 324.996 78.1875 324.788 78.3125C324.579 78.4375 324.35 78.625 324.1 78.875C323.933 79.125 323.704 79.2708 323.413 79.3125L322.6 79.5C322.1 79.9167 321.683 80.2917 321.35 80.625C321.017 80.9583 320.642 81.3333 320.225 81.75C319.6 82.375 319.183 82.8542 318.975 83.1875C318.808 83.4792 318.35 83.875 317.6 84.375L315.1 85.875C313.933 86.4583 312.767 87.1667 311.6 88C310.433 88.8333 309.267 89.6667 308.1 90.5C307.35 90.9583 306.496 91.3958 305.538 91.8125C304.663 92.1875 303.85 92.625 303.1 93.125C302.725 93.125 302.496 93.1042 302.413 93.0625C302.288 92.9792 302.058 93.0417 301.725 93.25C301.308 93.0417 300.892 93.0208 300.475 93.1875C300.017 93.3958 299.6 93.4167 299.225 93.25C298.808 92.9167 298.454 92.6458 298.163 92.4375C297.913 92.2292 297.704 92.0833 297.538 92C297.288 91.8333 297.058 91.625 296.85 91.375C296.683 90.9583 296.621 90.5 296.663 90C296.704 89.5 296.6 89.0833 296.35 88.75C296.35 86.9167 296.413 85.1667 296.538 83.5C296.663 81.8333 296.933 80.0833 297.35 78.25C297.433 77.6667 297.642 76.6667 297.975 75.25C298.308 73.7917 298.579 72.3958 298.788 71.0625C298.996 69.7292 298.933 68.9583 298.6 68.75C297.683 69.25 296.746 70 295.788 71C295.329 71.5 294.871 71.9583 294.413 72.375C293.954 72.7917 293.517 73.1667 293.1 73.5L291.163 74.875C290.871 75.0833 290.558 75.3125 290.225 75.5625C289.892 75.7708 289.558 76 289.225 76.25C288.642 76.6667 288.142 77.0833 287.725 77.5C287.308 77.9167 286.85 78.4167 286.35 79C286.058 79.2917 285.767 79.5833 285.475 79.875C285.225 80.125 284.975 80.3958 284.725 80.6875C284.225 81.2292 283.642 81.75 282.975 82.25C282.558 82.6667 282.246 82.9375 282.038 83.0625C281.829 83.1875 281.558 83.4167 281.225 83.75L280.038 84.9375C279.663 85.3125 279.183 85.625 278.6 85.875C277.267 87.6667 275.767 89.3958 274.1 91.0625C272.475 92.7292 271.183 94.4167 270.225 96.125C269.225 96.9583 268.163 97.6875 267.038 98.3125C265.913 98.9375 264.558 99 262.975 98.5C262.142 98 261.6 97.5833 261.35 97.25C261.1 96.9583 260.808 96.7083 260.475 96.5C260.558 95.5833 260.642 94.7083 260.725 93.875C260.808 93.0417 261.058 92.1667 261.475 91.25L262.225 90C262.642 89.2917 262.913 88.4583 263.038 87.5C263.163 86.5 263.433 85.625 263.85 84.875C264.35 84.0417 264.663 83.3542 264.788 82.8125C264.913 82.3125 265.1 81.8333 265.35 81.375C265.558 80.875 265.788 80.4792 266.038 80.1875C266.288 79.8958 266.517 79.5 266.725 79C266.933 78.5417 267.225 78.0625 267.6 77.5625C267.975 77.0625 268.267 76.5833 268.475 76.125C268.975 74.3333 269.642 72.5 270.475 70.625C270.642 70.0417 270.808 69.4792 270.975 68.9375C271.142 68.3958 271.35 67.875 271.6 67.375C271.808 66.9167 272.017 66.4583 272.225 66C272.433 65.5417 272.642 65.1042 272.85 64.6875C273.058 64.2292 273.267 63.7917 273.475 63.375C273.683 62.9167 273.892 62.4583 274.1 62C274.35 61.5 274.579 61.0625 274.788 60.6875C274.996 60.3125 275.267 59.9167 275.6 59.5C275.725 59.2917 275.85 59.0833 275.975 58.875C276.1 58.6667 276.204 58.4583 276.288 58.25C276.371 58.0417 276.475 57.8333 276.6 57.625C276.725 57.4167 276.85 57.2083 276.975 57C277.1 56.7917 277.225 56.5833 277.35 56.375C277.475 56.125 277.579 55.8542 277.663 55.5625C277.829 55.0208 278.142 54.5 278.6 54C278.892 53.6667 279.142 53.3542 279.35 53.0625C279.6 52.7292 279.808 52.4167 279.975 52.125C280.267 51.5833 280.808 51.2083 281.6 51C282.308 51.3333 283.038 51.2083 283.788 50.625C284.579 50 285.225 50.0417 285.725 50.75C286.892 51.5 287.683 52.0833 288.1 52.5C288.6 52.9583 288.933 53.4167 289.1 53.875C289.517 54.625 289.558 55.3958 289.225 56.1875C288.892 56.9792 288.308 57.6667 287.475 58.25C287.183 59.5417 286.6 60.875 285.725 62.25C285.308 62.875 284.913 63.5 284.538 64.125C284.163 64.7083 283.808 65.2917 283.475 65.875L282.475 68.375C281.975 69.5417 281.454 70.7083 280.913 71.875C280.371 73.0417 279.767 74.1667 279.1 75.25C278.558 76.375 278.142 77.1042 277.85 77.4375C277.6 77.7708 277.371 78.1042 277.163 78.4375C276.996 78.7292 276.683 79.4583 276.225 80.625ZM435.775 27C437.608 27.2917 439.192 27.4792 440.525 27.5625C441.9 27.6458 443.4 27.5417 445.025 27.25L449.963 26.5625C451.296 26.3958 452.9 26.2083 454.775 26C455.275 25.9583 455.796 25.9583 456.338 26C456.629 26.0417 456.9 26.0833 457.15 26.125C457.4 26.125 457.65 26.125 457.9 26.125C458.983 26.125 460.046 26.0833 461.088 26C462.129 25.9167 463.108 25.8333 464.025 25.75C464.192 25.7083 464.338 25.6667 464.463 25.625C464.629 25.5833 464.775 25.5417 464.9 25.5C465.15 25.4167 465.4 25.4167 465.65 25.5C466.025 25.5 466.4 25.5 466.775 25.5C467.15 25.5 467.525 25.4792 467.9 25.4375C468.65 25.3958 469.317 25.6667 469.9 26.25C470.15 27.0833 470.233 27.5417 470.15 27.625C470.025 27.75 469.942 27.875 469.9 28C469.817 29.0833 469.671 29.625 469.463 29.625C469.254 29.625 469.15 29.7083 469.15 29.875C468.483 30.0417 467.921 30.1875 467.463 30.3125C467.004 30.4375 466.65 30.7083 466.4 31.125C464.983 31.4167 463.671 31.4792 462.463 31.3125C461.254 31.1042 460.025 31.2917 458.775 31.875C458.15 32.1667 457.546 32.4792 456.963 32.8125C456.379 33.1875 455.608 33.2083 454.65 32.875C453.817 32.875 452.858 32.9167 451.775 33C450.692 33.0833 449.65 33.1667 448.65 33.25C447.233 33.375 445.629 33.5208 443.838 33.6875C442.088 33.8125 440.733 33.8958 439.775 33.9375C438.858 33.9792 437.546 34.0417 435.838 34.125C434.129 34.2083 432.608 34.25 431.275 34.25C430.608 34.7917 430.171 35.5 429.963 36.375C429.754 37.2083 429.317 37.875 428.65 38.375C427.9 40.0417 427.358 41.1042 427.025 41.5625C426.65 42.0625 426.358 42.7083 426.15 43.5C424.983 45 423.921 46.5625 422.963 48.1875C422.088 49.6875 420.983 51.2083 419.65 52.75C419.483 53.6667 419.171 54.4792 418.713 55.1875C418.296 55.8542 417.983 56.7917 417.775 58C416.9 59.1667 416.233 60.5417 415.775 62.125C415.567 62.875 415.317 63.6458 415.025 64.4375C414.775 65.2292 414.483 66.0417 414.15 66.875C413.983 67.5417 413.796 68.1875 413.588 68.8125C413.379 69.4375 413.15 70.0833 412.9 70.75C412.608 71.5 412.213 72.2708 411.713 73.0625C411.504 73.3958 411.275 73.7708 411.025 74.1875C410.817 74.5625 410.608 74.9583 410.4 75.375C410.233 75.5417 410.15 75.7708 410.15 76.0625C410.15 76.2708 410.108 76.5 410.025 76.75C409.9 77.0417 409.775 77.3333 409.65 77.625C409.525 77.875 409.4 78.1042 409.275 78.3125C409.108 78.6042 408.9 79.0417 408.65 79.625C408.525 79.9167 408.421 80.3542 408.338 80.9375C408.254 81.5208 408.15 81.9583 408.025 82.25C407.983 82.375 407.942 82.5 407.9 82.625C407.858 82.75 407.817 82.8542 407.775 82.9375C407.733 83.0208 407.692 83.125 407.65 83.25C407.608 83.375 407.567 83.5 407.525 83.625C407.275 84.7917 407.275 85.5833 407.525 86C407.775 86.4167 407.983 86.8333 408.15 87.25C408.233 87.5 408.317 87.7292 408.4 87.9375C408.483 88.1458 408.567 88.3542 408.65 88.5625C408.858 88.9375 408.983 89.3333 409.025 89.75C409.233 89.8333 409.442 89.9167 409.65 90C409.858 90.0833 410.046 90.1667 410.213 90.25C410.546 90.4167 410.942 90.5 411.4 90.5C411.942 90.5833 412.483 90.3542 413.025 89.8125C413.608 89.2292 414.108 88.9167 414.525 88.875C415.025 88.7083 415.588 88.625 416.213 88.625C416.754 88.625 417.233 88.5 417.65 88.25C417.9 88.0417 418.129 87.8333 418.338 87.625C418.546 87.4167 418.733 87.2083 418.9 87C419.15 86.625 419.608 86.3333 420.275 86.125C421.608 85.7917 422.317 85.5208 422.4 85.3125C422.442 85.1458 422.733 84.8333 423.275 84.375C423.567 84.1667 423.838 83.9583 424.088 83.75C424.379 83.5417 424.629 83.3542 424.838 83.1875C425.171 82.8958 425.733 82.5 426.525 82C427.358 81.5833 427.838 81.3333 427.963 81.25C428.088 81.1667 428.442 80.875 429.025 80.375C429.442 80.1667 429.817 79.9583 430.15 79.75C430.525 79.5 430.858 79.25 431.15 79C431.608 78.5833 432.275 78.125 433.15 77.625C434.15 77.2083 434.692 76.9583 434.775 76.875C434.9 76.75 434.983 76.6042 435.025 76.4375C435.067 76.2708 435.525 75.9167 436.4 75.375C436.692 74.75 437.067 74.2083 437.525 73.75C437.733 73.5417 437.963 73.3125 438.213 73.0625C438.463 72.7708 438.733 72.4583 439.025 72.125C439.567 71.5 440.088 71 440.588 70.625C441.171 70.1667 441.65 69.75 442.025 69.375C442.192 69.25 442.4 69.0625 442.65 68.8125C442.9 68.5625 443.192 68.4167 443.525 68.375C443.775 68.1667 443.983 67.9792 444.15 67.8125C444.358 67.6458 444.546 67.4792 444.713 67.3125C444.879 67.1458 445.067 66.9583 445.275 66.75C445.525 66.5417 445.817 66.2917 446.15 66L446.775 65.375C447.067 65.0833 447.275 64.9167 447.4 64.875C447.775 64.875 448.046 65 448.213 65.25C448.421 65.5 448.692 65.625 449.025 65.625C448.983 66.1667 448.942 66.6042 448.9 66.9375C448.9 67.2708 448.9 67.5208 448.9 67.6875C448.9 68.0208 448.817 68.3333 448.65 68.625C448.15 69.4167 447.588 69.8333 446.963 69.875C446.338 69.9583 445.858 70.4167 445.525 71.25C445.275 71.0833 444.963 71.0417 444.588 71.125C444.213 71.2083 443.942 71.3333 443.775 71.5C443.942 71.7917 444.025 72.0833 444.025 72.375C444.025 72.5417 444.067 72.8333 444.15 73.25C442.608 74.7917 441.608 76 441.15 76.875C440.108 77.9583 439.567 78.5625 439.525 78.6875L439.4 78.875L438.4 79.875C437.233 80.7917 436.358 81.6667 435.775 82.5C435.233 83.2917 434.358 84.0417 433.15 84.75C432.233 85.4167 431.608 85.9167 431.275 86.25C431.108 86.4167 430.9 86.625 430.65 86.875C430.4 87.0833 430.108 87.3333 429.775 87.625C429.567 87.8333 429.254 88.1875 428.838 88.6875C428.421 89.1875 428.067 89.5417 427.775 89.75C427.233 90.1667 426.671 90.5417 426.088 90.875C425.629 91.125 425.15 91.5417 424.65 92.125C423.442 92.6667 422.546 93.3333 421.963 94.125C421.421 94.8333 420.608 95.5417 419.525 96.25C418.775 96.75 417.754 97.375 416.463 98.125C415.171 98.875 414.067 99.4167 413.15 99.75C413.025 99.7917 412.9 99.8333 412.775 99.875C412.65 99.9167 412.546 99.9583 412.463 100C412.379 100.042 412.275 100.083 412.15 100.125C412.025 100.167 411.9 100.208 411.775 100.25C411.108 99.8333 410.463 99.4167 409.838 99C409.213 98.5833 408.692 98 408.275 97.25C407.483 96.6667 406.879 96.25 406.463 96C405.963 95.7083 405.525 95.375 405.15 95C404.733 94.2917 404.296 93.5833 403.838 92.875C403.379 92.1667 402.879 91.4583 402.338 90.75C401.254 89.2917 400.442 87.7083 399.9 86C399.775 85.7917 399.671 85.4375 399.588 84.9375L399.4 83.75C399.317 83.4167 399.233 83.1042 399.15 82.8125C399.067 82.5208 398.983 82.25 398.9 82C398.733 81.5833 398.692 80.9583 398.775 80.125C398.775 79.5417 398.858 79 399.025 78.5C399.108 78.2083 399.192 77.9167 399.275 77.625C399.358 77.2917 399.442 76.9583 399.525 76.625C399.692 76.0833 399.879 75.5625 400.088 75.0625C400.296 74.5208 400.504 74 400.713 73.5C401.213 72.375 401.567 71.2917 401.775 70.25C402.275 68.5 402.817 66.8333 403.4 65.25C403.525 64.9583 403.629 64.5625 403.713 64.0625C403.754 63.6875 403.983 63.4167 404.4 63.25C404.733 61.5833 405.275 59.9792 406.025 58.4375C406.775 56.8958 407.525 55.4167 408.275 54C408.733 53.125 409.171 52.25 409.588 51.375C410.004 50.4583 410.421 49.5417 410.838 48.625C411.254 47.7083 411.671 46.8125 412.088 45.9375C412.504 45.0208 412.942 44.125 413.4 43.25C413.442 42.3333 413.775 41.5 414.4 40.75C414.442 39.9167 414.775 39.0208 415.4 38.0625C416.025 37.1042 416.442 36.2083 416.65 35.375C415.733 35.125 414.713 35.1042 413.588 35.3125C412.463 35.5208 411.483 35.7083 410.65 35.875C409.15 35.9167 407.567 35.9167 405.9 35.875C405.608 35.8333 405.317 35.7917 405.025 35.75C404.775 35.6667 404.504 35.6042 404.213 35.5625C403.671 35.4375 403.15 35.375 402.65 35.375C401.9 35.4167 401.338 35.3542 400.963 35.1875C400.546 34.9792 400.15 34.9583 399.775 35.125C398.608 34.125 397.421 33.25 396.213 32.5C394.963 31.75 394.15 30.7917 393.775 29.625C393.775 29.375 393.9 29.1667 394.15 29C394.483 28.75 394.692 28.5833 394.775 28.5C395.483 28.2917 396.233 28.2292 397.025 28.3125C397.817 28.3542 398.483 28.2083 399.025 27.875C400.233 28.0417 401.463 27.9583 402.713 27.625C403.838 27.2917 405.025 27.1667 406.275 27.25C406.442 27.25 406.692 27.2917 407.025 27.375C407.358 27.4583 407.608 27.5 407.775 27.5C408.192 27.5417 408.546 27.5417 408.838 27.5C409.004 27.4583 409.171 27.4167 409.338 27.375C409.504 27.3333 409.692 27.2917 409.9 27.25C410.4 27.1667 410.942 27.1667 411.525 27.25C412.108 27.3333 412.692 27.3333 413.275 27.25C414.483 27.1667 415.796 27.2708 417.213 27.5625C418.754 27.8542 420.108 27.7917 421.275 27.375C421.483 26.7917 421.692 26.2083 421.9 25.625C422.15 25 422.421 24.3958 422.713 23.8125C423.296 22.6042 423.733 21.4167 424.025 20.25C424.358 19.75 424.692 19.1875 425.025 18.5625C425.358 17.9375 425.608 17.3333 425.775 16.75L426.963 14.75C427.129 14.5 427.296 14.25 427.463 14C427.629 13.75 427.817 13.5 428.025 13.25C428.608 12.0417 429.046 10.8958 429.338 9.8125C429.504 9.22917 429.671 8.64583 429.838 8.0625C430.046 7.4375 430.275 6.79167 430.525 6.125C431.067 5.54167 431.608 4.89583 432.15 4.1875C432.692 3.47917 433.233 2.70833 433.775 1.875C434.4 1.95833 434.879 1.79167 435.213 1.375C435.588 0.958333 436.15 1 436.9 1.5C436.9 1.75 437.004 1.97917 437.213 2.1875C437.421 2.39583 437.442 2.70833 437.275 3.125C438.108 3.95833 438.65 4.70833 438.9 5.375C439.067 6.04167 439.004 6.8125 438.713 7.6875C438.421 8.5625 438.483 9.375 438.9 10.125C439.067 10.5 439.108 10.8958 439.025 11.3125C438.942 11.7708 438.983 12.125 439.15 12.375C439.358 12.8333 439.588 13.25 439.838 13.625C440.129 14.0417 440.275 14.5833 440.275 15.25C440.275 15.5 440.213 15.8125 440.088 16.1875C439.963 16.5625 439.817 16.9583 439.65 17.375C439.358 18.625 439.108 19.5 438.9 20C438.817 20.25 438.733 20.5208 438.65 20.8125C438.567 21.0625 438.483 21.3333 438.4 21.625C437.817 22.3333 437.525 22.7708 437.525 22.9375C437.525 23.0625 437.483 23.25 437.4 23.5C437.275 23.75 437.15 24.0417 437.025 24.375C436.9 24.6667 436.754 24.9792 436.588 25.3125C436.421 25.6458 436.275 25.9583 436.15 26.25C436.025 26.5417 435.9 26.7917 435.775 27ZM551.825 61.25L551.7 62.25C551.783 62.5417 551.7 63.0417 551.45 63.75C551.033 64.25 550.783 64.7917 550.7 65.375C550.533 65.7083 550.388 66 550.263 66.25C550.138 66.5 550.033 66.8333 549.95 67.25C549.783 67.75 549.721 68.3333 549.763 69C549.804 69.3333 549.804 69.6667 549.763 70C549.763 70.2917 549.742 70.5833 549.7 70.875C549.533 71.7917 549.408 72.6875 549.325 73.5625C549.242 74.4375 549.158 75.3333 549.075 76.25C549.075 77.1667 548.992 78.2083 548.825 79.375C548.658 80.5417 548.492 81.5833 548.325 82.5C548.7 83.1667 548.908 83.7917 548.95 84.375C548.992 85 549.283 85.5417 549.825 86C551.492 85.75 552.825 85.3542 553.825 84.8125C554.825 84.2708 555.783 83.5 556.7 82.5C557.367 82.2083 557.888 81.9167 558.263 81.625C558.596 81.3333 559.075 81 559.7 80.625L560.7 79.625C561.7 79.0833 562.263 78.75 562.388 78.625C562.471 78.5417 562.575 78.4583 562.7 78.375C562.867 78.2917 563.033 78.2083 563.2 78.125C564.617 77.2083 565.7 76.25 566.45 75.25C567.075 74.75 567.596 74.2292 568.013 73.6875C568.346 73.2292 568.992 72.7917 569.95 72.375C570.492 71.7083 571.096 71.1458 571.763 70.6875C572.429 70.2292 573.033 69.6667 573.575 69C574.033 69 574.367 69.0833 574.575 69.25C574.7 69.3333 574.825 69.4167 574.95 69.5C575.117 69.5833 575.283 69.6667 575.45 69.75C575.7 70.4167 575.742 71.1042 575.575 71.8125C575.408 72.5208 575.117 73.1667 574.7 73.75C574.283 74.2917 574.075 74.625 574.075 74.75C574.075 74.8333 574.033 74.9167 573.95 75C573.7 75.2917 573.388 75.6042 573.013 75.9375C572.638 76.2292 572.325 76.5417 572.075 76.875C571.658 77.625 571.325 78 571.075 78C570.825 78 570.617 78.0833 570.45 78.25C569.7 78.7083 569.179 79.0417 568.888 79.25C568.554 79.5417 568.075 79.875 567.45 80.25C566.575 80.7083 566.033 81.0417 565.825 81.25C565.617 81.4583 565.45 81.5833 565.325 81.625C564.325 82.75 563.346 83.6875 562.388 84.4375C561.513 85.1042 560.575 86.0417 559.575 87.25C559.242 87.5 558.908 87.75 558.575 88C558.242 88.25 557.95 88.5833 557.7 89C556.95 89.5 556.346 90 555.888 90.5C555.429 91 554.908 91.5833 554.325 92.25C553.825 92.5 553.283 92.8542 552.7 93.3125C551.992 93.8542 551.367 94.25 550.825 94.5C550.617 94.625 550.263 94.8125 549.763 95.0625C549.346 95.2708 548.95 95.375 548.575 95.375C547.617 95.5417 546.7 95.4583 545.825 95.125C545.033 94.8333 544.242 94.5833 543.45 94.375C543.117 93.875 542.7 93.4583 542.2 93.125C541.45 92.2083 540.908 91.125 540.575 89.875C540.242 88.625 539.908 87.2917 539.575 85.875C538.825 86.375 538.2 86.9167 537.7 87.5C537.2 88.125 536.45 88.6667 535.45 89.125C534.617 89.9167 533.763 90.7083 532.888 91.5C532.013 92.25 531.096 92.9792 530.138 93.6875C529.221 94.3958 528.283 95.1458 527.325 95.9375C526.367 96.6875 525.408 97.4583 524.45 98.25C523.783 98.9167 523.325 99.1667 523.075 99C522.325 99.9167 520.992 100.208 519.075 99.875C518.408 99.5417 517.658 99.25 516.825 99C516.242 98.8333 515.575 98.5833 514.825 98.25C513.408 98 512.221 97.375 511.263 96.375C510.304 95.375 509.492 94.2083 508.825 92.875C508.575 92.1667 508.388 91.5417 508.263 91C508.221 90.7083 508.158 90.3958 508.075 90.0625C507.992 89.7292 507.908 89.375 507.825 89C507.783 88.2917 507.658 87.7292 507.45 87.3125C507.283 86.8542 507.283 86.4167 507.45 86C507.283 85.7917 507.242 85.5208 507.325 85.1875C507.408 84.7708 507.45 84.4583 507.45 84.25C507.367 83.0833 507.471 81.8333 507.763 80.5C508.054 79.1667 508.45 77.9583 508.95 76.875C509.2 76.4583 509.533 76.0417 509.95 75.625C510.158 75.375 510.283 75.125 510.325 74.875C510.367 74.6667 510.492 74.4583 510.7 74.25C510.908 74 511.158 73.75 511.45 73.5C511.867 73.1667 512.158 72.9167 512.325 72.75C512.533 72.4583 512.742 72.1875 512.95 71.9375C513.2 71.6458 513.471 71.3958 513.763 71.1875C514.054 70.9792 514.325 70.75 514.575 70.5C514.825 70.25 515.075 70 515.325 69.75C515.617 69.4583 515.846 69.1667 516.013 68.875C516.221 68.5417 516.533 68.2917 516.95 68.125C517.283 67.5417 517.658 67.0625 518.075 66.6875C518.492 66.3125 518.95 65.9167 519.45 65.5C520.867 63.7917 522.617 62.3333 524.7 61.125C526.825 59.9167 528.7 58.5833 530.325 57.125C530.908 56.875 531.408 56.5833 531.825 56.25C532.242 55.9167 532.658 55.5833 533.075 55.25C534.117 54.3333 535.242 54.0417 536.45 54.375L539.7 55.25C540.533 56 541.346 56.75 542.138 57.5C542.929 58.25 543.617 59.0833 544.2 60C544.492 59.9583 544.804 59.9375 545.138 59.9375C545.471 59.8958 545.825 59.8958 546.2 59.9375C546.95 60.0208 547.742 59.9583 548.575 59.75C548.825 59.75 549.075 59.6875 549.325 59.5625C549.575 59.4375 549.783 59.375 549.95 59.375C551.2 59.7917 551.825 60.4167 551.825 61.25ZM535.325 63.125C533.075 64.2083 531.033 65.4792 529.2 66.9375C527.367 68.3958 525.617 69.9583 523.95 71.625C523.742 71.8333 523.513 72.0417 523.263 72.25C523.054 72.4167 522.846 72.6042 522.638 72.8125C522.429 72.9792 522.221 73.1667 522.013 73.375C521.804 73.5833 521.617 73.7917 521.45 74C521.117 74.4167 520.804 74.9167 520.513 75.5C520.221 76.0833 519.95 76.625 519.7 77.125C519.617 77.2917 519.533 77.4583 519.45 77.625C519.367 77.75 519.283 77.8542 519.2 77.9375C519.117 78.0208 519.033 78.125 518.95 78.25C518.867 78.375 518.783 78.5 518.7 78.625C518.533 79.0417 518.471 79.4583 518.513 79.875C518.554 80.1667 518.575 80.625 518.575 81.25V82.5C518.575 82.75 518.617 83.1667 518.7 83.75C518.95 84.6667 519.075 85.5833 519.075 86.5C519.075 87.1667 519.138 87.9792 519.263 88.9375C519.388 89.8958 519.7 90.5417 520.2 90.875C520.742 91.2083 521.263 91.2917 521.763 91.125C522.346 90.9167 522.825 90.7917 523.2 90.75C526.117 88.5 528.867 86.1458 531.45 83.6875C534.033 81.2292 536.325 78.4583 538.325 75.375C538.158 73.3333 538.138 71.2292 538.263 69.0625C538.388 67.0208 538.2 65.125 537.7 63.375C537.367 63.1667 536.971 63.1042 536.513 63.1875C536.179 63.2292 535.783 63.2083 535.325 63.125ZM694.25 67.25C695.083 68.2917 695.479 69 695.438 69.375C695.396 69.6667 695.375 70.125 695.375 70.75C694.958 71.2083 694.625 71.7292 694.375 72.3125C694.167 72.8125 693.792 73.2917 693.25 73.75C692.75 74.0833 692.312 74.3125 691.938 74.4375C691.438 74.5625 691.042 74.8333 690.75 75.25C690.167 75.4583 689.75 75.6667 689.5 75.875C689.208 76.125 688.708 76.2083 688 76.125C686 78.125 684.229 79.75 682.688 81C681.146 82.25 679.542 83.4583 677.875 84.625C676.625 85.7083 675.312 86.7083 673.938 87.625C672.562 88.5417 671.167 89.4583 669.75 90.375C669.208 90.9167 668.833 91.3125 668.625 91.5625C668.333 91.9375 667.917 92.25 667.375 92.5C666.417 93.4583 665.396 94.3542 664.312 95.1875C663.771 95.6042 663.25 96 662.75 96.375C662.292 96.7917 661.833 97.2083 661.375 97.625C660.458 98.2917 659.479 98.75 658.438 99C657.354 99.25 656.375 99.5833 655.5 100C653.917 100.708 652.708 100.833 651.875 100.375L649.562 100.812C648.938 100.938 648.167 100.875 647.25 100.625C647 100.542 646.75 100.417 646.5 100.25C646.375 100.167 646.229 100.083 646.062 100C645.938 99.9167 645.792 99.8333 645.625 99.75C644.792 99.4167 644.146 99.0625 643.688 98.6875C643.229 98.3125 642.833 97.9583 642.5 97.625C642.25 97.375 641.958 97.0208 641.625 96.5625C641.292 96.1042 641.042 95.7083 640.875 95.375C640.458 94.7083 640.188 93.8958 640.062 92.9375C639.938 91.9792 639.75 91.0417 639.5 90.125C639.333 89.2917 639.083 88.375 638.75 87.375C638.458 86.4583 638.333 85.5 638.375 84.5C638.417 84.1667 638.479 83.8333 638.562 83.5C638.646 83.1667 638.729 82.8542 638.812 82.5625L639.375 80.625C639.625 80.0417 639.854 79.4792 640.062 78.9375C640.271 78.3958 640.458 77.875 640.625 77.375C640.917 76.4583 641.292 75.5 641.75 74.5C642 74.0833 642.271 73.75 642.562 73.5C642.854 73.25 643.125 72.9167 643.375 72.5C643.5 72.375 643.604 72.125 643.688 71.75C643.771 71.3333 643.875 71.0417 644 70.875L646.125 68.5625C646.5 68.1458 646.854 67.7292 647.188 67.3125C647.521 66.8958 647.833 66.4583 648.125 66C648.333 65.7083 648.542 65.4375 648.75 65.1875C649 64.8958 649.229 64.6458 649.438 64.4375C649.646 64.2292 649.854 64 650.062 63.75C650.312 63.4583 650.542 63.1667 650.75 62.875C651.208 62.25 651.562 61.8542 651.812 61.6875C652.021 61.5625 652.208 61.375 652.375 61.125C652.875 60.625 653.333 60.1042 653.75 59.5625C654.167 59.0208 654.583 58.4583 655 57.875C655.292 57.5833 655.583 57.2917 655.875 57C656.208 56.6667 656.521 56.3333 656.812 56C657.396 55.375 658.042 54.8333 658.75 54.375C659.542 53.9167 660.312 53.5417 661.062 53.25C661.479 53.0833 661.896 52.9167 662.312 52.75C662.729 52.5417 663.167 52.3333 663.625 52.125C664.083 51.9167 664.479 51.7083 664.812 51.5C665.146 51.2917 665.542 51.0833 666 50.875C666.5 50.6667 666.958 50.5417 667.375 50.5C667.75 50.4583 668.125 50.25 668.5 49.875C669 49.9583 669.458 49.875 669.875 49.625C670.292 49.375 670.708 49.1667 671.125 49C671.542 48.9583 671.938 48.9583 672.312 49C672.688 49.0833 673 49 673.25 48.75C673.458 48.9167 673.729 49 674.062 49C674.354 49 674.583 49.0833 674.75 49.25C675.542 49.4583 676.042 50.0417 676.25 51C676.417 52.25 676.104 53.5417 675.312 54.875C674.521 56.2083 673.833 57.2083 673.25 57.875C672.542 59.0417 671.5 60.0417 670.125 60.875C669.167 60.875 668.146 60.9375 667.062 61.0625C665.938 61.1875 665 61.1667 664.25 61C664.042 61.375 663.812 61.6042 663.562 61.6875C663.229 61.8125 663.167 62.0417 663.375 62.375C660.542 64.7917 658.042 67.3542 655.875 70.0625C653.708 72.7708 652 75.9583 650.75 79.625C650.292 81.125 649.875 82.1458 649.5 82.6875C649.083 83.2708 648.875 83.9167 648.875 84.625C649.375 86.375 650.208 87.8542 651.375 89.0625C652.542 90.2708 653.708 90.9583 654.875 91.125C656.208 91.2917 657.396 91.0417 658.438 90.375C659.521 89.6667 660.5 89.0833 661.375 88.625C661.958 88.2083 662.542 87.8125 663.125 87.4375C663.708 87.0625 664.271 86.7083 664.812 86.375L668.375 84.25C668.708 84.0833 669.042 83.8958 669.375 83.6875C669.708 83.4792 670.042 83.25 670.375 83C671.375 82.2917 672.354 81.5625 673.312 80.8125C673.771 80.4792 674.208 80.1458 674.625 79.8125C675.083 79.4375 675.542 79.0833 676 78.75C676.375 78.7083 676.688 78.5625 676.938 78.3125C677.146 78.1042 677.458 78 677.875 78C679.375 76.6667 681 75.4792 682.75 74.4375C684.5 73.3958 686.333 72.3333 688.25 71.25C688.917 70.5833 689.521 70.0625 690.062 69.6875C690.604 69.3125 691.208 68.7917 691.875 68.125C692.458 68.125 692.875 67.9792 693.125 67.6875C693.375 67.3958 693.75 67.25 694.25 67.25ZM800.05 27C801.883 27.2917 803.467 27.4792 804.8 27.5625C806.175 27.6458 807.675 27.5417 809.3 27.25L814.238 26.5625C815.571 26.3958 817.175 26.2083 819.05 26C819.55 25.9583 820.071 25.9583 820.613 26C820.904 26.0417 821.175 26.0833 821.425 26.125C821.675 26.125 821.925 26.125 822.175 26.125C823.258 26.125 824.321 26.0833 825.363 26C826.404 25.9167 827.383 25.8333 828.3 25.75C828.467 25.7083 828.613 25.6667 828.738 25.625C828.904 25.5833 829.05 25.5417 829.175 25.5C829.425 25.4167 829.675 25.4167 829.925 25.5C830.3 25.5 830.675 25.5 831.05 25.5C831.425 25.5 831.8 25.4792 832.175 25.4375C832.925 25.3958 833.592 25.6667 834.175 26.25C834.425 27.0833 834.508 27.5417 834.425 27.625C834.3 27.75 834.217 27.875 834.175 28C834.092 29.0833 833.946 29.625 833.738 29.625C833.529 29.625 833.425 29.7083 833.425 29.875C832.758 30.0417 832.196 30.1875 831.738 30.3125C831.279 30.4375 830.925 30.7083 830.675 31.125C829.258 31.4167 827.946 31.4792 826.738 31.3125C825.529 31.1042 824.3 31.2917 823.05 31.875C822.425 32.1667 821.821 32.4792 821.238 32.8125C820.654 33.1875 819.883 33.2083 818.925 32.875C818.092 32.875 817.133 32.9167 816.05 33C814.967 33.0833 813.925 33.1667 812.925 33.25C811.508 33.375 809.904 33.5208 808.113 33.6875C806.363 33.8125 805.008 33.8958 804.05 33.9375C803.133 33.9792 801.821 34.0417 800.113 34.125C798.404 34.2083 796.883 34.25 795.55 34.25C794.883 34.7917 794.446 35.5 794.238 36.375C794.029 37.2083 793.592 37.875 792.925 38.375C792.175 40.0417 791.633 41.1042 791.3 41.5625C790.925 42.0625 790.633 42.7083 790.425 43.5C789.258 45 788.196 46.5625 787.238 48.1875C786.363 49.6875 785.258 51.2083 783.925 52.75C783.758 53.6667 783.446 54.4792 782.988 55.1875C782.571 55.8542 782.258 56.7917 782.05 58C781.175 59.1667 780.508 60.5417 780.05 62.125C779.842 62.875 779.592 63.6458 779.3 64.4375C779.05 65.2292 778.758 66.0417 778.425 66.875C778.258 67.5417 778.071 68.1875 777.863 68.8125C777.654 69.4375 777.425 70.0833 777.175 70.75C776.883 71.5 776.488 72.2708 775.988 73.0625C775.779 73.3958 775.55 73.7708 775.3 74.1875C775.092 74.5625 774.883 74.9583 774.675 75.375C774.508 75.5417 774.425 75.7708 774.425 76.0625C774.425 76.2708 774.383 76.5 774.3 76.75C774.175 77.0417 774.05 77.3333 773.925 77.625C773.8 77.875 773.675 78.1042 773.55 78.3125C773.383 78.6042 773.175 79.0417 772.925 79.625C772.8 79.9167 772.696 80.3542 772.613 80.9375C772.529 81.5208 772.425 81.9583 772.3 82.25C772.258 82.375 772.217 82.5 772.175 82.625C772.133 82.75 772.092 82.8542 772.05 82.9375C772.008 83.0208 771.967 83.125 771.925 83.25C771.883 83.375 771.842 83.5 771.8 83.625C771.55 84.7917 771.55 85.5833 771.8 86C772.05 86.4167 772.258 86.8333 772.425 87.25C772.508 87.5 772.592 87.7292 772.675 87.9375C772.758 88.1458 772.842 88.3542 772.925 88.5625C773.133 88.9375 773.258 89.3333 773.3 89.75C773.508 89.8333 773.717 89.9167 773.925 90C774.133 90.0833 774.321 90.1667 774.488 90.25C774.821 90.4167 775.217 90.5 775.675 90.5C776.217 90.5833 776.758 90.3542 777.3 89.8125C777.883 89.2292 778.383 88.9167 778.8 88.875C779.3 88.7083 779.863 88.625 780.488 88.625C781.029 88.625 781.508 88.5 781.925 88.25C782.175 88.0417 782.404 87.8333 782.613 87.625C782.821 87.4167 783.008 87.2083 783.175 87C783.425 86.625 783.883 86.3333 784.55 86.125C785.883 85.7917 786.592 85.5208 786.675 85.3125C786.717 85.1458 787.008 84.8333 787.55 84.375C787.842 84.1667 788.113 83.9583 788.363 83.75C788.654 83.5417 788.904 83.3542 789.113 83.1875C789.446 82.8958 790.008 82.5 790.8 82C791.633 81.5833 792.113 81.3333 792.238 81.25C792.363 81.1667 792.717 80.875 793.3 80.375C793.717 80.1667 794.092 79.9583 794.425 79.75C794.8 79.5 795.133 79.25 795.425 79C795.883 78.5833 796.55 78.125 797.425 77.625C798.425 77.2083 798.967 76.9583 799.05 76.875C799.175 76.75 799.258 76.6042 799.3 76.4375C799.342 76.2708 799.8 75.9167 800.675 75.375C800.967 74.75 801.342 74.2083 801.8 73.75C802.008 73.5417 802.238 73.3125 802.488 73.0625C802.738 72.7708 803.008 72.4583 803.3 72.125C803.842 71.5 804.363 71 804.863 70.625C805.446 70.1667 805.925 69.75 806.3 69.375C806.467 69.25 806.675 69.0625 806.925 68.8125C807.175 68.5625 807.467 68.4167 807.8 68.375C808.05 68.1667 808.258 67.9792 808.425 67.8125C808.633 67.6458 808.821 67.4792 808.988 67.3125C809.154 67.1458 809.342 66.9583 809.55 66.75C809.8 66.5417 810.092 66.2917 810.425 66L811.05 65.375C811.342 65.0833 811.55 64.9167 811.675 64.875C812.05 64.875 812.321 65 812.488 65.25C812.696 65.5 812.967 65.625 813.3 65.625C813.258 66.1667 813.217 66.6042 813.175 66.9375C813.175 67.2708 813.175 67.5208 813.175 67.6875C813.175 68.0208 813.092 68.3333 812.925 68.625C812.425 69.4167 811.863 69.8333 811.238 69.875C810.613 69.9583 810.133 70.4167 809.8 71.25C809.55 71.0833 809.238 71.0417 808.863 71.125C808.488 71.2083 808.217 71.3333 808.05 71.5C808.217 71.7917 808.3 72.0833 808.3 72.375C808.3 72.5417 808.342 72.8333 808.425 73.25C806.883 74.7917 805.883 76 805.425 76.875C804.383 77.9583 803.842 78.5625 803.8 78.6875L803.675 78.875L802.675 79.875C801.508 80.7917 800.633 81.6667 800.05 82.5C799.508 83.2917 798.633 84.0417 797.425 84.75C796.508 85.4167 795.883 85.9167 795.55 86.25C795.383 86.4167 795.175 86.625 794.925 86.875C794.675 87.0833 794.383 87.3333 794.05 87.625C793.842 87.8333 793.529 88.1875 793.113 88.6875C792.696 89.1875 792.342 89.5417 792.05 89.75C791.508 90.1667 790.946 90.5417 790.363 90.875C789.904 91.125 789.425 91.5417 788.925 92.125C787.717 92.6667 786.821 93.3333 786.238 94.125C785.696 94.8333 784.883 95.5417 783.8 96.25C783.05 96.75 782.029 97.375 780.738 98.125C779.446 98.875 778.342 99.4167 777.425 99.75C777.3 99.7917 777.175 99.8333 777.05 99.875C776.925 99.9167 776.821 99.9583 776.738 100C776.654 100.042 776.55 100.083 776.425 100.125C776.3 100.167 776.175 100.208 776.05 100.25C775.383 99.8333 774.738 99.4167 774.113 99C773.488 98.5833 772.967 98 772.55 97.25C771.758 96.6667 771.154 96.25 770.738 96C770.238 95.7083 769.8 95.375 769.425 95C769.008 94.2917 768.571 93.5833 768.113 92.875C767.654 92.1667 767.154 91.4583 766.613 90.75C765.529 89.2917 764.717 87.7083 764.175 86C764.05 85.7917 763.946 85.4375 763.863 84.9375L763.675 83.75C763.592 83.4167 763.508 83.1042 763.425 82.8125C763.342 82.5208 763.258 82.25 763.175 82C763.008 81.5833 762.967 80.9583 763.05 80.125C763.05 79.5417 763.133 79 763.3 78.5C763.383 78.2083 763.467 77.9167 763.55 77.625C763.633 77.2917 763.717 76.9583 763.8 76.625C763.967 76.0833 764.154 75.5625 764.363 75.0625C764.571 74.5208 764.779 74 764.988 73.5C765.488 72.375 765.842 71.2917 766.05 70.25C766.55 68.5 767.092 66.8333 767.675 65.25C767.8 64.9583 767.904 64.5625 767.988 64.0625C768.029 63.6875 768.258 63.4167 768.675 63.25C769.008 61.5833 769.55 59.9792 770.3 58.4375C771.05 56.8958 771.8 55.4167 772.55 54C773.008 53.125 773.446 52.25 773.863 51.375C774.279 50.4583 774.696 49.5417 775.113 48.625C775.529 47.7083 775.946 46.8125 776.363 45.9375C776.779 45.0208 777.217 44.125 777.675 43.25C777.717 42.3333 778.05 41.5 778.675 40.75C778.717 39.9167 779.05 39.0208 779.675 38.0625C780.3 37.1042 780.717 36.2083 780.925 35.375C780.008 35.125 778.988 35.1042 777.863 35.3125C776.738 35.5208 775.758 35.7083 774.925 35.875C773.425 35.9167 771.842 35.9167 770.175 35.875C769.883 35.8333 769.592 35.7917 769.3 35.75C769.05 35.6667 768.779 35.6042 768.488 35.5625C767.946 35.4375 767.425 35.375 766.925 35.375C766.175 35.4167 765.613 35.3542 765.238 35.1875C764.821 34.9792 764.425 34.9583 764.05 35.125C762.883 34.125 761.696 33.25 760.488 32.5C759.238 31.75 758.425 30.7917 758.05 29.625C758.05 29.375 758.175 29.1667 758.425 29C758.758 28.75 758.967 28.5833 759.05 28.5C759.758 28.2917 760.508 28.2292 761.3 28.3125C762.092 28.3542 762.758 28.2083 763.3 27.875C764.508 28.0417 765.738 27.9583 766.988 27.625C768.113 27.2917 769.3 27.1667 770.55 27.25C770.717 27.25 770.967 27.2917 771.3 27.375C771.633 27.4583 771.883 27.5 772.05 27.5C772.467 27.5417 772.821 27.5417 773.113 27.5C773.279 27.4583 773.446 27.4167 773.613 27.375C773.779 27.3333 773.967 27.2917 774.175 27.25C774.675 27.1667 775.217 27.1667 775.8 27.25C776.383 27.3333 776.967 27.3333 777.55 27.25C778.758 27.1667 780.071 27.2708 781.488 27.5625C783.029 27.8542 784.383 27.7917 785.55 27.375C785.758 26.7917 785.967 26.2083 786.175 25.625C786.425 25 786.696 24.3958 786.988 23.8125C787.571 22.6042 788.008 21.4167 788.3 20.25C788.633 19.75 788.967 19.1875 789.3 18.5625C789.633 17.9375 789.883 17.3333 790.05 16.75L791.238 14.75C791.404 14.5 791.571 14.25 791.738 14C791.904 13.75 792.092 13.5 792.3 13.25C792.883 12.0417 793.321 10.8958 793.613 9.8125C793.779 9.22917 793.946 8.64583 794.113 8.0625C794.321 7.4375 794.55 6.79167 794.8 6.125C795.342 5.54167 795.883 4.89583 796.425 4.1875C796.967 3.47917 797.508 2.70833 798.05 1.875C798.675 1.95833 799.154 1.79167 799.488 1.375C799.863 0.958333 800.425 1 801.175 1.5C801.175 1.75 801.279 1.97917 801.488 2.1875C801.696 2.39583 801.717 2.70833 801.55 3.125C802.383 3.95833 802.925 4.70833 803.175 5.375C803.342 6.04167 803.279 6.8125 802.988 7.6875C802.696 8.5625 802.758 9.375 803.175 10.125C803.342 10.5 803.383 10.8958 803.3 11.3125C803.217 11.7708 803.258 12.125 803.425 12.375C803.633 12.8333 803.863 13.25 804.113 13.625C804.404 14.0417 804.55 14.5833 804.55 15.25C804.55 15.5 804.488 15.8125 804.363 16.1875C804.238 16.5625 804.092 16.9583 803.925 17.375C803.633 18.625 803.383 19.5 803.175 20C803.092 20.25 803.008 20.5208 802.925 20.8125C802.842 21.0625 802.758 21.3333 802.675 21.625C802.092 22.3333 801.8 22.7708 801.8 22.9375C801.8 23.0625 801.758 23.25 801.675 23.5C801.55 23.75 801.425 24.0417 801.3 24.375C801.175 24.6667 801.029 24.9792 800.863 25.3125C800.696 25.6458 800.55 25.9583 800.425 26.25C800.3 26.5417 800.175 26.7917 800.05 27ZM1054.9 87.875C1056.07 88.1667 1057.28 88.1667 1058.53 87.875C1059.11 87.7083 1059.57 87.4583 1059.9 87.125L1061.4 86.5625C1061.73 86.4375 1062.19 86.25 1062.78 86C1063.03 85.8333 1063.28 85.6875 1063.53 85.5625C1063.78 85.3958 1064 85.2708 1064.21 85.1875C1064.71 84.9792 1065.07 84.7917 1065.28 84.625C1065.4 84.5417 1065.55 84.4375 1065.71 84.3125C1065.92 84.1458 1066.13 83.9583 1066.34 83.75C1066.75 83.3333 1067.07 83.1667 1067.28 83.25C1067.48 82.7917 1067.96 82.3542 1068.71 81.9375C1069.42 81.5625 1069.9 81.1667 1070.15 80.75C1070.57 80.75 1071.25 80.4167 1072.21 79.75C1073.17 79.0833 1073.78 78.625 1074.03 78.375C1075.03 77.9583 1075.88 77.8542 1076.59 78.0625C1077.3 78.2708 1077.73 78.6667 1077.9 79.25C1078.07 80 1077.78 81.0625 1077.03 82.4375C1076.32 83.7708 1075.61 84.625 1074.9 85C1074.9 85.1667 1074.59 85.5 1073.96 86C1073.34 86.5 1073.03 86.8333 1073.03 87C1072.86 87.3333 1072.44 87.7292 1071.78 88.1875C1071.11 88.6458 1070.65 88.9583 1070.4 89.125C1070.23 89.2083 1069.98 89.3958 1069.65 89.6875C1069.32 89.9792 1069.07 90.2083 1068.9 90.375C1068.57 90.5417 1068.15 90.75 1067.65 91C1067.15 91.25 1066.73 91.4583 1066.4 91.625C1066.07 91.8333 1065.73 92.0625 1065.4 92.3125C1065.07 92.5625 1064.73 92.8333 1064.4 93.125C1064.07 93.4167 1063.73 93.7083 1063.4 94C1063.07 94.25 1062.73 94.5 1062.4 94.75C1061.98 94.9167 1061.61 95.1042 1061.28 95.3125C1060.94 95.5208 1060.69 95.8333 1060.53 96.25C1059.11 97 1057.84 97.9375 1056.71 99.0625C1055.5 100.271 1054.19 101.125 1052.78 101.625C1052.36 101.542 1052 101.458 1051.71 101.375C1051.42 101.292 1051.11 101.125 1050.78 100.875C1050.28 99.25 1049.53 98.0417 1048.53 97.25C1048.07 95.8333 1047.55 94.5833 1046.96 93.5C1046.38 92.375 1045.98 91.0417 1045.78 89.5C1045.15 87.625 1044.8 85.5625 1044.71 83.3125C1044.67 82.2292 1044.63 81.1458 1044.59 80.0625C1044.55 78.9792 1044.48 77.875 1044.4 76.75C1044.65 75.5 1044.69 74.0833 1044.53 72.5C1044.11 72.5 1043.78 72.6458 1043.53 72.9375C1043.36 73.1458 1043.11 73.375 1042.78 73.625C1042.36 73.875 1042.03 74.1458 1041.78 74.4375C1041.61 74.6458 1041.36 74.875 1041.03 75.125C1040.28 75.8333 1039.67 76.3333 1039.21 76.625C1038.88 76.8333 1038.61 77.125 1038.4 77.5C1038.15 77.8333 1037.88 78.1875 1037.59 78.5625C1037.34 78.9375 1037.07 79.3333 1036.78 79.75C1036.48 80.1667 1036.19 80.5625 1035.9 80.9375C1035.61 81.3125 1035.32 81.6667 1035.03 82C1034.53 82.6667 1034.15 83.125 1033.9 83.375C1033.73 83.5417 1033.61 83.7917 1033.53 84.125C1033.28 84.1667 1033.03 84.3125 1032.78 84.5625C1032.53 84.8125 1032.28 84.9583 1032.03 85C1031.78 85.3333 1031.5 85.5833 1031.21 85.75C1031.05 85.8333 1030.9 85.9167 1030.78 86C1030.65 86.0833 1030.53 86.1667 1030.4 86.25C1029.65 86.7917 1028.9 87.4167 1028.15 88.125C1027.78 88.4583 1027.38 88.7917 1026.96 89.125C1026.59 89.4583 1026.19 89.7917 1025.78 90.125C1025.03 90.7917 1024.23 91.4792 1023.4 92.1875C1022.57 92.8958 1021.65 93.5833 1020.65 94.25C1020.23 94.9167 1019.65 95.4375 1018.9 95.8125C1018.11 96.2292 1017.4 96.625 1016.78 97C1015.94 97.5 1015.3 97.625 1014.84 97.375C1014.42 97.125 1014.03 97 1013.65 97C1012.9 97.1667 1012.21 97.1042 1011.59 96.8125C1011.09 96.5625 1010.4 96.2917 1009.53 96C1008.94 95.7083 1008.48 95.375 1008.15 95C1007.86 94.6667 1007.4 94.2917 1006.78 93.875C1006.36 93.625 1006.05 93.3958 1005.84 93.1875L1004.9 92.25C1003.9 91.8333 1003.25 91.1875 1002.96 90.3125C1002.67 89.4375 1002.4 88.5417 1002.15 87.625C1001.82 86.7083 1001.55 85.8125 1001.34 84.9375C1001.13 84.0625 1001.07 83.125 1001.15 82.125C1001.36 80.6667 1001.61 79.2917 1001.9 78C1002.23 76.5833 1002.4 75.3333 1002.4 74.25C1002.57 73.625 1002.65 72.9167 1002.65 72.125C1002.65 71.2917 1002.73 70.625 1002.9 70.125C1003.07 69.125 1003.28 68.2917 1003.53 67.625C1003.69 66.7083 1004.03 65.7917 1004.53 64.875C1004.65 64.2917 1004.8 63.7083 1004.96 63.125C1005.17 62.5 1005.38 61.8542 1005.59 61.1875L1006.9 57.25C1007.15 56.4583 1007.42 55.6667 1007.71 54.875C1008 54.0833 1008.3 53.2917 1008.59 52.5C1008.92 51.7083 1009.21 50.9167 1009.46 50.125C1009.75 49.3333 1010.03 48.5417 1010.28 47.75C1010.53 47.1667 1010.71 46.6042 1010.84 46.0625C1010.96 45.4792 1011.15 44.9167 1011.4 44.375L1011.96 43.625C1012.09 43.4583 1012.28 43.1667 1012.53 42.75C1012.65 42.5833 1012.8 42.2917 1012.96 41.875C1013.09 41.5417 1013.28 41.2917 1013.53 41.125C1013.94 39.9583 1014.46 38.9375 1015.09 38.0625C1015.71 37.1875 1016.36 36.2917 1017.03 35.375C1017.44 35.125 1017.69 34.7083 1017.78 34.125C1018.4 33.5833 1018.86 32.9792 1019.15 32.3125C1019.48 31.6042 1019.94 30.9583 1020.53 30.375C1020.78 29.5 1021.09 28.6667 1021.46 27.875C1021.8 27.1667 1022.07 26.3333 1022.28 25.375C1022.94 23.7083 1023.65 22.1042 1024.4 20.5625C1025.15 19.0208 1025.94 17.4583 1026.78 15.875C1026.78 15.5 1026.94 15.0417 1027.28 14.5C1027.57 13.0833 1028.03 11.9167 1028.65 11C1028.69 10.375 1028.9 9.91667 1029.28 9.625C1029.65 9.33333 1029.86 8.875 1029.9 8.25C1030.23 8 1030.42 7.72917 1030.46 7.4375C1030.55 7.10417 1030.65 6.875 1030.78 6.75C1031.11 6.16667 1031.59 5.75 1032.21 5.5C1032.8 5.25 1033.32 4.875 1033.78 4.375C1034.11 4.33333 1034.44 4.29167 1034.78 4.25C1035.15 4.20833 1035.53 4.16667 1035.9 4.125C1036.57 4.08333 1037.36 3.91667 1038.28 3.625C1039.11 3.45833 1039.71 3.33333 1040.09 3.25C1040.46 3.16667 1040.86 3 1041.28 2.75C1042.11 3.25 1042.8 3.85417 1043.34 4.5625C1043.88 5.27083 1044.36 6.08333 1044.78 7C1044.44 7.41667 1044.15 7.79167 1043.9 8.125C1043.65 8.45833 1043.44 8.72917 1043.28 8.9375C1042.9 9.47917 1042.53 9.95833 1042.15 10.375C1041.65 11.2083 1041.19 12.0833 1040.78 13C1040.36 13.9167 1039.94 14.8333 1039.53 15.75L1038.15 18.5C1037.9 19.2917 1037.59 20.0208 1037.21 20.6875C1036.84 21.3542 1036.53 22.0833 1036.28 22.875C1036.07 23.3333 1035.92 23.7917 1035.84 24.25C1035.75 24.7083 1035.65 25.0417 1035.53 25.25C1035.28 25.9167 1034.96 26.5417 1034.59 27.125C1034.17 27.7083 1033.94 28.375 1033.9 29.125C1033.57 29.75 1033.25 30.3333 1032.96 30.875C1032.67 31.4167 1032.38 31.9167 1032.09 32.375C1031.8 32.8333 1031.53 33.3125 1031.28 33.8125C1031.07 34.2708 1030.86 34.75 1030.65 35.25C1030.57 35.375 1030.46 35.6042 1030.34 35.9375C1030.21 36.2708 1030.11 36.5 1030.03 36.625C1029.82 36.9167 1029.57 37.375 1029.28 38C1028.86 38.75 1028.48 39.5625 1028.15 40.4375C1027.86 41.3125 1027.48 42.125 1027.03 42.875C1026.44 43.8333 1026.15 44.3958 1026.15 44.5625C1026.15 44.8125 1026.07 45.0417 1025.9 45.25C1025.28 46 1024.94 46.4792 1024.9 46.6875C1024.86 46.9792 1024.73 47.25 1024.53 47.5C1024.19 47.9167 1023.96 48.2292 1023.84 48.4375C1023.71 48.6458 1023.48 48.9583 1023.15 49.375C1022.86 50 1022.4 50.75 1021.78 51.625C1021.11 52.5 1020.53 53.375 1020.03 54.25C1019.69 55.0417 1019.44 55.75 1019.28 56.375C1019.11 57 1018.86 57.5417 1018.53 58C1018.32 58.7917 1018.11 59.4167 1017.9 59.875C1017.69 60.2917 1017.48 60.9583 1017.28 61.875C1015.86 64.4583 1014.65 67.125 1013.65 69.875C1012.65 72.625 1011.69 75.4583 1010.78 78.375C1010.78 79.125 1010.53 79.8542 1010.03 80.5625C1009.48 81.2708 1009.44 82.1667 1009.9 83.25C1010.61 83.9583 1011.11 84.5625 1011.4 85.0625C1011.69 85.5625 1011.94 85.9167 1012.15 86.125C1012.69 86.6667 1013.19 87.0833 1013.65 87.375C1014.69 86.5833 1015.59 85.8542 1016.34 85.1875C1017.17 84.4375 1018.19 83.8333 1019.4 83.375C1019.69 83.2917 1019.92 83.0417 1020.09 82.625C1020.25 82.25 1020.44 81.9583 1020.65 81.75C1022.03 80.7917 1023.38 79.7083 1024.71 78.5C1026 77.3333 1027.4 76.25 1028.9 75.25C1030.9 73.9583 1032.71 72.5625 1034.34 71.0625C1036.05 69.4792 1037.86 68.0417 1039.78 66.75C1040.28 66.2083 1040.69 65.8333 1041.03 65.625C1041.78 64.2083 1042.71 63.0208 1043.84 62.0625C1044.96 61.1042 1046.11 60.1667 1047.28 59.25L1047.84 58.75C1047.92 58.6667 1048 58.5833 1048.09 58.5C1048.21 58.4167 1048.32 58.3333 1048.4 58.25C1049.48 55.0833 1050.59 51.9583 1051.71 48.875C1052.84 45.7917 1054.19 42.875 1055.78 40.125C1055.98 39.125 1056.25 38.375 1056.59 37.875C1056.92 37.375 1057.19 36.7083 1057.4 35.875C1057.9 35.0417 1058.3 34.3542 1058.59 33.8125C1058.88 33.2708 1059.15 32.75 1059.4 32.25C1060.57 30.0833 1061.75 27.875 1062.96 25.625C1064.17 23.375 1065.32 21.0833 1066.4 18.75C1067.86 16.4583 1069.61 14.2917 1071.65 12.25C1072.48 12 1073.11 11.5417 1073.53 10.875C1074.07 10.2917 1074.36 9.91667 1074.4 9.75C1074.44 9.625 1074.57 9.45833 1074.78 9.25L1075.4 7.875C1076.03 6.79167 1076.36 6.1875 1076.4 6.0625C1076.44 5.8125 1076.57 5.45833 1076.78 5C1077.28 4.79167 1077.78 4.60417 1078.28 4.4375C1078.78 4.27083 1079.25 4.125 1079.71 4C1080.17 3.875 1080.63 3.75 1081.09 3.625C1081.59 3.45833 1082.07 3.29167 1082.53 3.125C1082.78 3.04167 1083 2.95833 1083.21 2.875C1083.46 2.79167 1083.67 2.70833 1083.84 2.625C1084.13 2.45833 1084.65 2.41667 1085.4 2.5C1085.98 3 1086.53 3.54167 1087.03 4.125C1087.4 5.66667 1087.11 6.66667 1086.15 7.125C1085.69 8.04167 1085.15 8.91667 1084.53 9.75C1083.98 10.5 1083.48 11.375 1083.03 12.375C1081.07 14.8333 1079.4 17.625 1078.03 20.75C1077.32 22.0833 1076.5 23.4792 1075.59 24.9375C1074.8 26.1875 1074.03 27.625 1073.28 29.25C1072.61 30.6667 1071.9 32.0208 1071.15 33.3125C1070.78 33.9792 1070.4 34.6458 1070.03 35.3125C1069.65 35.9792 1069.28 36.6667 1068.9 37.375C1068.4 38.1667 1068.15 38.6458 1068.15 38.8125C1068.15 38.8542 1068.11 39 1068.03 39.25C1067.9 39.4583 1067.71 39.8125 1067.46 40.3125L1066.9 41.5C1066.82 41.7083 1066.73 41.9167 1066.65 42.125C1066.57 42.2917 1066.48 42.4792 1066.4 42.6875C1066.32 42.8542 1066.23 43.0417 1066.15 43.25C1066.07 43.4583 1065.98 43.6667 1065.9 43.875C1065.65 44.2083 1065.48 44.4167 1065.4 44.5C1065.23 44.6667 1065.19 44.9167 1065.28 45.25C1064.11 47.625 1063.03 50.1042 1062.03 52.6875C1061.53 53.9792 1061.03 55.25 1060.53 56.5C1060.03 57.7083 1059.53 58.9167 1059.03 60.125C1058.86 60.7917 1058.67 61.4167 1058.46 62C1058.25 62.5833 1058.05 63.1458 1057.84 63.6875C1057.63 64.2292 1057.4 64.7708 1057.15 65.3125C1056.94 65.8542 1056.73 66.4167 1056.53 67C1056.28 69.125 1055.78 71.0833 1055.03 72.875C1054.23 74.75 1053.69 76.75 1053.4 78.875C1053.4 80.875 1053.61 82.5 1054.03 83.75C1054.23 84.4167 1054.4 85.1042 1054.53 85.8125C1054.69 86.4792 1054.82 87.1667 1054.9 87.875ZM1164.33 77L1165.08 77.625C1165.28 77.9583 1165.22 78.4167 1164.89 79C1164.72 79.2917 1164.58 79.5625 1164.45 79.8125C1164.37 80.0625 1164.28 80.2917 1164.2 80.5C1164.24 80.6667 1164.28 80.8333 1164.33 81C1164.37 81.125 1164.41 81.2292 1164.45 81.3125C1164.53 81.5625 1164.49 81.8333 1164.33 82.125C1164.91 82.5833 1165.28 83.0625 1165.45 83.5625C1165.66 84.2292 1165.95 84.7917 1166.33 85.25C1166.83 85.7917 1167.26 86.2083 1167.64 86.5C1168.1 86.7917 1168.53 87.1667 1168.95 87.625C1169.41 87.375 1169.74 87.25 1169.95 87.25C1170.24 87.25 1170.58 87.1667 1170.95 87C1171.66 86.0833 1172.24 84.9167 1172.7 83.5C1172.78 83.1667 1172.87 82.7917 1172.95 82.375C1173.03 81.9583 1173.08 81.5833 1173.08 81.25C1173.03 80.1667 1172.7 79.0417 1172.08 77.875C1171.45 76.6667 1170.99 75.5417 1170.7 74.5C1170.37 73.7917 1170.26 73.0417 1170.39 72.25C1170.51 71.375 1170.49 70.625 1170.33 70C1170.28 69.5833 1170.16 69.25 1169.95 69C1169.87 68.875 1169.78 68.75 1169.7 68.625C1169.62 68.4583 1169.53 68.2917 1169.45 68.125C1169.28 67.4167 1169.22 66.6667 1169.26 65.875C1169.35 65.0417 1169.16 64.3333 1168.7 63.75C1168.2 64.25 1167.41 65.2083 1166.33 66.625C1165.24 68 1164.16 69.375 1163.08 70.75C1162.03 72.125 1161.28 73.0417 1160.83 73.5C1160.62 73.7917 1160.39 74.0833 1160.14 74.375C1159.93 74.625 1159.7 74.8542 1159.45 75.0625C1159.2 75.2708 1158.95 75.5208 1158.7 75.8125C1158.49 76.0625 1158.28 76.3333 1158.08 76.625C1156.74 78.2917 1155.74 79.5208 1155.08 80.3125C1154.45 81.1042 1153.83 81.9167 1153.2 82.75C1152.58 83.5833 1151.58 84.9167 1150.2 86.75C1149.74 87.4167 1148.97 88.5 1147.89 90C1146.76 91.5 1145.7 92.9583 1144.7 94.375C1143.66 95.75 1143.03 96.6667 1142.83 97.125C1142.33 97.9583 1141.68 98.6875 1140.89 99.3125C1140.1 99.9375 1139.16 100.25 1138.08 100.25C1138.08 100.208 1137.99 99.875 1137.83 99.25C1137.66 98.6667 1137.51 98.0417 1137.39 97.375C1137.22 96.75 1137.12 96.4167 1137.08 96.375C1137.33 95.875 1137.51 95.375 1137.64 94.875C1137.76 94.4167 1138.12 93.9583 1138.7 93.5C1138.87 92.9583 1139.35 92.0625 1140.14 90.8125C1140.93 89.5208 1141.85 88.1458 1142.89 86.6875C1143.93 85.1875 1144.91 83.8125 1145.83 82.5625C1146.7 81.3125 1147.28 80.4583 1147.58 80C1148.12 79.4583 1148.91 78.5208 1149.95 77.1875C1150.95 75.8542 1151.95 74.5208 1152.95 73.1875C1153.99 71.8125 1154.74 70.8333 1155.2 70.25C1155.58 69.125 1156.35 67.7292 1157.51 66.0625C1158.72 64.3542 1159.99 62.625 1161.33 60.875C1162.7 59.0833 1163.83 57.5417 1164.7 56.25C1165.12 55.5833 1165.47 55 1165.76 54.5C1166.05 54 1166.37 53.4583 1166.7 52.875C1167.03 52.5417 1167.33 52.1667 1167.58 51.75C1167.74 51.125 1167.66 50.6458 1167.33 50.3125C1167.03 49.9792 1166.91 49.5417 1166.95 49C1167.7 47.5833 1168.43 46.6875 1169.14 46.3125C1169.89 45.8958 1170.62 45.2083 1171.33 44.25C1171.83 43.9167 1172.22 43.6667 1172.51 43.5C1172.93 43.2917 1173.33 43 1173.7 42.625C1174.28 42.0417 1175.14 41.8958 1176.26 42.1875C1177.43 42.4375 1178.12 42.7917 1178.33 43.25C1178.37 43.5 1178.37 43.8333 1178.33 44.25C1178.28 44.4583 1178.24 44.6667 1178.2 44.875C1178.16 45.0833 1178.12 45.2917 1178.08 45.5C1177.99 45.875 1177.91 46.2292 1177.83 46.5625C1177.74 46.8958 1177.66 47.2292 1177.58 47.5625C1177.49 47.8542 1177.41 48.1875 1177.33 48.5625C1177.24 48.8958 1177.16 49.25 1177.08 49.625C1176.91 50.5417 1176.76 51.4167 1176.64 52.25C1176.51 53.0833 1176.78 53.875 1177.45 54.625C1177.37 55.0417 1177.39 55.5417 1177.51 56.125C1177.64 56.7083 1177.78 57.25 1177.95 57.75C1178.12 60.4167 1178.6 63.0625 1179.39 65.6875C1180.18 68.3125 1181.03 70.7083 1181.95 72.875C1181.95 73.2917 1182.01 73.7083 1182.14 74.125C1182.26 74.5417 1182.41 74.9583 1182.58 75.375C1182.83 78.0417 1182.58 80.6875 1181.83 83.3125C1181.45 84.6042 1181.08 85.8958 1180.7 87.1875C1180.37 88.4792 1180.03 89.75 1179.7 91C1179.2 91.8333 1178.78 92.7917 1178.45 93.875C1178.16 94.8333 1177.74 95.625 1177.2 96.25C1176.78 96.9167 1176.41 97.6667 1176.08 98.5C1175.74 99.3333 1175.08 100 1174.08 100.5C1173.53 100.667 1172.97 100.667 1172.39 100.5C1171.85 100.333 1171.33 100.333 1170.83 100.5C1170.45 100.542 1170.08 100.646 1169.7 100.812C1169.41 100.938 1169.08 101 1168.7 101C1167.62 101.208 1166.72 101.104 1166.01 100.688C1165.39 100.354 1164.53 100.083 1163.45 99.875C1163.45 99.625 1163.33 99.4375 1163.08 99.3125C1162.83 99.1875 1162.62 99.0417 1162.45 98.875C1162.16 97.625 1161.83 96.6667 1161.45 96C1161.16 95.4167 1160.91 94.7917 1160.7 94.125C1160.45 93.1667 1160.33 92.2708 1160.33 91.4375C1160.33 90.5208 1160.12 89.625 1159.7 88.75C1159.37 88 1159.22 87.5417 1159.26 87.375C1159.3 87.2083 1159.33 86.9583 1159.33 86.625C1159.33 85.5417 1159.26 84.3542 1159.14 83.0625C1159.01 81.7292 1159.53 80.6667 1160.7 79.875C1161.16 79.5417 1161.47 79.1042 1161.64 78.5625C1161.8 78.1042 1162.16 77.625 1162.7 77.125C1162.87 76.9583 1163.14 76.875 1163.51 76.875C1163.8 76.875 1164.08 76.9167 1164.33 77Z" fill="#545650"/>
</svg>
